<svg width="310" height="285" viewBox="0 0 310 285" fill="none" xmlns="http://www.w3.org/2000/svg">
<path fill-rule="evenodd" clip-rule="evenodd" d="M87.9258 8.94666H181.541C184.734 8.94666 187.346 11.5489 187.346 14.7233V50.3419C187.346 53.5165 184.731 56.1187 181.541 56.1187H87.9258C85.8671 56.1187 73.5682 56.2608 69.5778 53.5439C80.2255 52.7101 82.1208 48.519 82.1208 45.5945V14.7233C82.1208 11.546 84.7328 8.94666 87.9258 8.94666ZM172.993 32.769C172.961 32.1727 172.856 31.5927 172.678 31.0286C172.492 30.4647 172.216 29.9571 171.844 29.5222C171.472 29.0871 171.01 28.7326 170.443 28.4505C169.885 28.1686 169.172 28.0237 168.322 28.0237C167.513 28.0237 166.816 28.1605 166.233 28.4264C165.651 28.6923 165.165 29.0468 164.776 29.4819C164.388 29.9169 164.096 30.4245 163.886 31.0045C163.683 31.5846 163.53 32.1727 163.432 32.769H172.993ZM105.266 33.4053C104.61 35.8626 103.93 38.2957 103.202 40.7046L100.951 48.0361H95.4135C94.8225 46.6827 94.191 45.0713 93.5111 43.1941C92.831 41.325 92.1267 39.2867 91.398 37.0873L89.1716 30.078L86.9454 22.6176H94.5797L95.4379 26.4203L96.4093 30.642L97.4699 35.0087C97.8504 36.475 98.231 37.8768 98.6115 39.2303L99.7529 34.8717L100.911 30.4889L101.996 26.3398C102.376 25.0024 102.7 23.7617 102.975 22.6176H108.084L108.942 26.3479L109.962 30.5212L111.071 34.8879C111.468 36.3702 111.881 37.8204 112.31 39.2303L113.467 35.0087C113.864 33.5424 114.228 32.0922 114.56 30.642L115.532 26.4203L116.39 22.6176H123.903L121.701 30.078L119.466 37.0873C118.746 39.2867 118.033 41.325 117.337 43.1941C116.641 45.0713 116.001 46.6827 115.41 48.0361H109.768L107.395 40.7208C106.618 38.3119 105.914 35.8707 105.266 33.4053ZM133.637 48.0361H126.399V22.6176H133.637V48.0361ZM134.301 15.5456C134.301 16.8669 133.872 17.9062 133.022 18.6635C132.172 19.4289 131.16 19.8076 129.994 19.8076C128.812 19.8076 127.8 19.4289 126.934 18.6635C126.076 17.9062 125.646 16.8669 125.646 15.5456C125.646 14.2244 126.076 13.1932 126.934 12.4358C127.8 11.6866 128.812 11.3079 129.994 11.3079C131.16 11.3079 132.172 11.6866 133.022 12.4358C133.872 13.1932 134.301 14.2244 134.301 15.5456ZM154.101 28.9501C153.454 28.7889 152.685 28.6197 151.81 28.4426C150.936 28.2572 149.997 28.1686 149.001 28.1686C148.54 28.1686 147.997 28.2089 147.366 28.2975C146.734 28.3862 146.256 28.4748 145.941 28.5714V48.0361H138.703V23.955C139.998 23.4958 141.528 23.0768 143.293 22.674C145.058 22.2793 147.026 22.0778 149.187 22.0778C149.584 22.0778 150.053 22.1021 150.604 22.1504C151.146 22.1988 151.697 22.2632 152.247 22.3437C152.806 22.4324 153.357 22.5291 153.899 22.6418C154.441 22.7465 154.911 22.8835 155.308 23.0365L154.101 28.9501ZM155.992 35.5323C155.992 33.2764 156.34 31.3026 157.028 29.6027C157.725 27.9028 158.648 26.4928 159.781 25.365C160.923 24.245 162.226 23.3911 163.699 22.8029C165.165 22.2229 166.679 21.9328 168.225 21.9328C171.852 21.9328 174.718 23.0365 176.823 25.2521C178.936 27.4596 179.988 30.7064 179.988 34.9844C179.988 35.4114 179.972 35.8707 179.948 36.3702C179.915 36.8616 179.883 37.3048 179.851 37.6995H163.432C163.594 39.2061 164.282 40.4065 165.513 41.2928C166.735 42.187 168.387 42.6302 170.459 42.6302C171.787 42.6302 173.091 42.5093 174.37 42.2596C175.649 42.0098 176.693 41.7036 177.503 41.333L178.474 47.1418C178.078 47.3271 177.559 47.5125 176.92 47.7058C176.28 47.9072 175.568 48.0683 174.775 48.2134C173.981 48.3503 173.131 48.4712 172.224 48.5678C171.318 48.6726 170.411 48.721 169.504 48.721C167.213 48.721 165.213 48.3826 163.505 47.7058C161.797 47.029 160.388 46.1025 159.271 44.9182C158.162 43.7419 157.336 42.3482 156.794 40.7449C156.259 39.1417 155.992 37.4014 155.992 35.5323Z" fill="white"/>
<path fill-rule="evenodd" clip-rule="evenodd" d="M71.5278 32.8589C71.4083 31.0988 70.9854 29.2593 69.8774 27.8696C68.7674 26.4773 67.2485 25.9466 65.489 25.9466C64.5448 25.9466 63.6155 26.1192 62.7717 26.5525C61.9565 26.9709 61.2447 27.5262 60.6436 28.2158C60.0161 28.9354 59.5508 29.7549 59.2193 30.6475C58.9539 31.3623 58.7793 32.1048 58.6838 32.8589H71.5278ZM58.5553 36.8955C58.7021 38.9899 59.2258 41.18 60.6207 42.7887C62.1645 44.5696 64.6396 45.0081 66.8897 45.0081C68.1082 45.0081 69.5664 44.9388 70.7326 44.5597C71.401 44.3424 72.1706 44.0885 72.7957 43.7662L73.6251 43.3385L74.5144 47.4808L74.0468 47.7338C73.2708 48.1539 72.2036 48.4701 71.3572 48.7178C69.8915 49.1467 68.3152 49.2864 66.7925 49.2864C64.8022 49.2864 62.7417 49.0301 60.8924 48.2653C59.3035 47.6082 57.9029 46.6598 56.7797 45.3571C55.6738 44.0748 54.9085 42.587 54.4486 40.9629C53.9498 39.2007 53.7499 37.3612 53.7499 35.5336C53.7499 33.507 54.012 31.4447 54.7443 29.5435C55.3557 27.9564 56.1991 26.4662 57.3643 25.2148C58.4205 24.0805 59.6674 23.1898 61.1079 22.6068C62.4838 22.0497 63.9314 21.7649 65.4162 21.7649C68.4716 21.7649 71.1845 22.7131 73.2486 24.9968C75.5794 27.576 76.1434 31.3691 76.1434 34.7119C76.1434 34.9794 76.1346 35.2473 76.1176 35.5142C76.1016 35.7649 76.0778 36.0147 76.05 36.2645L75.9798 36.8955H58.5553Z" fill="white"/>
<path fill-rule="evenodd" clip-rule="evenodd" d="M41.9716 42.9353C42.4444 41.8257 42.9159 40.7155 43.3896 39.6063C44.159 37.8047 44.8581 35.9736 45.492 34.1204C46.1439 32.2143 46.7523 30.2931 47.3022 28.3554C47.8166 26.5433 48.2937 24.7187 48.7096 22.8815L48.8349 22.3282H53.4788L53.2529 23.2122C52.668 25.4997 52.0176 27.7707 51.2983 30.0199C50.593 32.225 49.8321 34.412 49.0291 36.5836C48.2591 38.6667 47.4341 40.7311 46.526 42.7586L43.8439 48.7461H39.9212L39.7272 48.3434C38.8399 46.501 38.0005 44.635 37.1894 42.7581C36.31 40.7232 35.4908 38.6625 34.7222 36.5837C33.9202 34.4148 33.1612 32.2303 32.4535 30.0292C31.7295 27.7778 31.08 25.5027 30.4983 23.2111L30.2742 22.3282H35.1001L35.2273 22.8783C35.6512 24.713 36.1369 26.5344 36.666 28.3417C37.233 30.2789 37.8477 32.2022 38.5021 34.1118C39.1395 35.9714 39.8304 37.8122 40.5622 39.6369C41.0069 40.7455 41.4738 41.8478 41.9716 42.9353Z" fill="white"/>
<path fill-rule="evenodd" clip-rule="evenodd" d="M27.1786 15.7959C27.1786 16.6606 26.9131 17.4561 26.2806 18.0629C25.6902 18.6293 24.9627 18.914 24.1426 18.914C23.3215 18.914 22.5888 18.6289 21.9928 18.0671C21.3511 17.4624 21.0821 16.666 21.0821 15.7959C21.0821 14.9223 21.3509 14.1304 21.9857 13.5154C22.5789 12.9407 23.3158 12.6538 24.1426 12.6538C24.9684 12.6538 25.7003 12.9406 26.2877 13.5199C26.9131 14.1366 27.1786 14.9274 27.1786 15.7959Z" fill="white"/>
<path fill-rule="evenodd" clip-rule="evenodd" d="M26.5126 48.746H21.9301V22.3282H26.5126V48.746Z" fill="white"/>
<path fill-rule="evenodd" clip-rule="evenodd" d="M16.8625 49.1722C15.8681 49.1422 14.8434 49.023 13.8877 48.7401C13.0366 48.4882 12.2602 48.0739 11.6154 47.4617C10.9667 46.8456 10.5191 46.0894 10.2212 45.2518C9.86392 44.2465 9.76758 43.1021 9.76758 42.0423V10.5037L14.3502 9.68535V41.9295C14.3502 42.4506 14.3811 43.0657 14.5426 43.5653C14.6376 43.8596 14.7831 44.1597 15.0086 44.3779C15.2425 44.6039 15.5343 44.7371 15.8454 44.8237C16.3655 44.9685 16.9093 45.064 17.4431 45.1437L18.1632 45.2514L17.4811 49.1908L16.8625 49.1722Z" fill="white"/>
<path d="M78.3929 197.071H24.6429C20.5357 197.071 18.9286 195.286 18.9286 191.357V95.6429C18.9286 91.7143 20.5357 89.9286 24.6429 89.9286H25C29.1071 89.9286 30.7143 91.7143 30.7143 95.6429V182.429C30.7143 184.571 31.4286 185.286 33.5714 185.286H74.6429C76.4286 185.286 76.9643 184.75 76.9643 182.964V181.536C76.9643 179.75 76.4286 179.214 74.6429 179.214H40.7143C37.8571 179.214 36.7857 177.964 36.7857 175.286V88.8571C36.7857 85.2857 35.3571 83.8571 31.7857 83.8571H17.8571C14.2857 83.8571 12.8571 85.2857 12.8571 88.8571V198.143C12.8571 201.714 14.2857 203.143 17.8571 203.143H78.3929C79.2857 203.143 79.8214 203.679 79.8214 204.571C79.8214 205.464 79.2857 206 78.3929 206H17.8571C12.6786 206 10 203.321 10 198.143V88.8571C10 83.6786 12.6786 81 17.8571 81H31.7857C36.9643 81 39.6429 83.6786 39.6429 88.8571V175.286C39.6429 176 40 176.357 40.7143 176.357H74.6429C78.3929 176.357 79.8214 177.964 79.8214 181.536V182.964C79.8214 186.536 78.3929 188.143 74.6429 188.143H33.5714C29.4643 188.143 27.8571 186.357 27.8571 182.429V95.6429C27.8571 93.5 27.1429 92.7857 25 92.7857H24.6429C22.5 92.7857 21.7857 93.5 21.7857 95.6429V191.357C21.7857 193.5 22.5 194.214 24.6429 194.214H78.3929C79.2857 194.214 79.8214 194.75 79.8214 195.643C79.8214 196.536 79.2857 197.071 78.3929 197.071Z" fill="url(#paint0_linear_1489_6996)"/>
<path d="M114.768 95.6429V204.571C114.768 205.464 114.233 206 113.34 206C112.447 206 111.911 205.464 111.911 204.571V95.6429C111.911 93.5 111.197 92.7857 109.054 92.7857H108.697C106.554 92.7857 105.84 93.5 105.84 95.6429V200.821C105.84 204.571 104.233 206 100.661 206H99.2327C95.6613 206 94.0541 204.571 94.0541 200.821V88.8571C94.0541 83.6786 96.7327 81 101.911 81H115.84C121.018 81 123.697 83.6786 123.697 88.8571V204.571C123.697 205.464 123.161 206 122.268 206C121.376 206 120.84 205.464 120.84 204.571V88.8571C120.84 85.2857 119.411 83.8571 115.84 83.8571H101.911C98.3398 83.8571 96.9113 85.2857 96.9113 88.8571V200.821C96.9113 202.607 97.447 203.143 99.2327 203.143H100.661C102.447 203.143 102.983 202.607 102.983 200.821V95.6429C102.983 91.7143 104.59 89.9286 108.697 89.9286H109.054C113.161 89.9286 114.768 91.7143 114.768 95.6429Z" fill="url(#paint1_linear_1489_6996)"/>
<path d="M185.458 182.964L205.993 85.2857C206.708 81.8929 208.672 81 211.886 81H213.493C216.886 81 218.672 82.6071 217.779 86.8929L195.993 189.214C194.743 195.464 191.886 197.071 186.529 197.071H173.315C167.958 197.071 165.1 195.464 163.85 189.214L141.886 85.8214C141.529 84.3929 140.815 83.8571 139.565 83.8571H137.243C135.815 83.8571 135.458 84.75 135.815 86L159.208 194.571C160.636 200.821 163.315 203.143 169.208 203.143H190.636C196.529 203.143 199.208 200.821 200.636 194.571L224.743 82.4286C224.922 81.7143 225.279 81 226.35 81C227.422 81 227.958 81.8929 227.779 82.9643L203.493 195.286C201.886 203.143 198.315 206 190.636 206H169.208C161.529 206 158.136 203.143 156.35 195.286L132.958 86.8929C132.065 82.6071 133.85 81 137.243 81H138.85C142.065 81 144.029 81.8929 144.743 85.2857L166.886 189.036C167.779 192.786 169.029 194.214 173.136 194.214H186.708C190.815 194.214 192.065 192.786 192.958 189.036L214.922 86C215.1 84.75 214.922 83.8571 213.493 83.8571H211.172C209.922 83.8571 209.208 84.3929 208.85 85.8214L188.493 182.786C187.6 186.714 185.993 187.964 181.708 187.964H178.136C173.85 187.964 172.243 186.714 171.35 182.786L151.172 86.8929C150.279 82.6071 152.065 81 155.458 81H157.065C160.279 81 162.243 81.8929 162.958 85.2857L179.386 167.25C179.565 167.964 180.279 167.964 180.458 167.25L197.422 82.4286C197.6 81.7143 197.958 81 199.029 81C200.1 81 200.636 81.7143 200.279 82.9643L183.136 168.321C182.422 171.714 181.529 172.429 179.922 172.429C178.315 172.429 177.422 171.714 176.708 168.321L160.1 85.8214C159.743 84.3929 159.029 83.8571 157.779 83.8571H155.458C154.029 83.8571 153.85 84.75 154.029 86L174.386 182.964C174.743 184.571 175.815 185.107 177.065 185.107H182.779C184.029 185.107 185.1 184.571 185.458 182.964Z" fill="url(#paint2_linear_1489_6996)"/>
<path d="M289.572 148.5H259.215C257.429 148.5 256.893 149.036 256.893 150.821V182.429C256.893 184.571 257.607 185.286 259.75 185.286H304.393C308.143 185.286 309.572 186.893 309.572 190.464V191.893C309.572 195.464 308.143 197.071 304.393 197.071H250.822C246.715 197.071 245.107 195.286 245.107 191.357V95.6429C245.107 91.7143 246.715 89.9286 250.822 89.9286H304.393C306.179 89.9286 306.715 89.3929 306.715 87.6071V86.1786C306.715 84.3929 306.179 83.8571 304.393 83.8571H244.036C240.465 83.8571 239.036 85.2857 239.036 88.8571V198.143C239.036 201.714 240.465 203.143 244.036 203.143H308.143C309.036 203.143 309.572 203.679 309.572 204.571C309.572 205.464 309.036 206 308.143 206H244.036C238.857 206 236.179 203.321 236.179 198.143V88.8571C236.179 83.6786 238.857 81 244.036 81H304.393C308.143 81 309.572 82.6071 309.572 86.1786V87.6071C309.572 91.1786 308.143 92.7857 304.393 92.7857H250.822C248.679 92.7857 247.965 93.5 247.965 95.6429V191.357C247.965 193.5 248.679 194.214 250.822 194.214H304.393C306.179 194.214 306.715 193.679 306.715 191.893V190.464C306.715 188.679 306.179 188.143 304.393 188.143H259.75C255.643 188.143 254.036 186.357 254.036 182.429V150.821C254.036 147.25 255.465 145.643 259.215 145.643H289.572C291.715 145.643 292.429 144.929 292.429 142.786V142.429C292.429 140.286 291.715 139.571 289.572 139.571H259.215C255.465 139.571 254.036 137.964 254.036 134.393V104.571C254.036 100.643 255.643 98.8571 259.75 98.8571H304.393C308.143 98.8571 309.572 100.464 309.572 104.036V105.464C309.572 109.036 308.143 110.643 304.393 110.643H266.893C266.179 110.643 265.822 111 265.822 111.714V126.714C265.822 127.429 266.179 127.786 266.893 127.786H296.357C301.536 127.786 304.215 130.464 304.215 135.643V149.571C304.215 154.75 301.536 157.429 296.357 157.429H266.893C266.179 157.429 265.822 157.786 265.822 158.5V175.286C265.822 176 266.179 176.357 266.893 176.357H308.143C309.036 176.357 309.572 176.893 309.572 177.786C309.572 178.679 309.036 179.214 308.143 179.214H266.893C264.036 179.214 262.965 177.964 262.965 175.286V158.5C262.965 155.821 264.036 154.571 266.893 154.571H296.357C299.929 154.571 301.357 153.143 301.357 149.571V135.643C301.357 132.071 299.929 130.643 296.357 130.643H266.893C264.036 130.643 262.965 129.393 262.965 126.714V111.714C262.965 109.036 264.036 107.786 266.893 107.786H304.393C306.179 107.786 306.715 107.25 306.715 105.464V104.036C306.715 102.25 306.179 101.714 304.393 101.714H259.75C257.607 101.714 256.893 102.429 256.893 104.571V134.393C256.893 136.179 257.429 136.714 259.215 136.714H289.572C293.5 136.714 295.286 138.321 295.286 142.429V142.786C295.286 146.893 293.5 148.5 289.572 148.5Z" fill="url(#paint3_linear_1489_6996)"/>
<path d="M172.579 255.548C173.091 255.548 173.493 255.702 173.785 256.009C174.078 256.301 174.224 256.681 174.224 257.149V260H152.864V258.399C152.864 258.077 152.93 257.741 153.061 257.39C153.193 257.039 153.405 256.718 153.697 256.425L163.522 246.579C164.355 245.745 165.094 244.949 165.737 244.188C166.395 243.428 166.95 242.668 167.404 241.908C167.871 241.148 168.222 240.38 168.456 239.605C168.705 238.816 168.829 237.99 168.829 237.127C168.829 236.294 168.698 235.563 168.434 234.934C168.186 234.291 167.835 233.764 167.382 233.355C166.943 232.931 166.409 232.617 165.781 232.412C165.167 232.193 164.487 232.083 163.741 232.083C163.025 232.083 162.36 232.185 161.746 232.39C161.146 232.595 160.605 232.88 160.123 233.245C159.655 233.611 159.26 234.049 158.939 234.561C158.632 235.058 158.405 235.607 158.259 236.206C158.04 236.805 157.754 237.207 157.404 237.412C157.067 237.617 156.57 237.661 155.912 237.544L153.434 237.105C153.654 235.614 154.063 234.305 154.662 233.18C155.276 232.054 156.044 231.118 156.965 230.373C157.886 229.612 158.939 229.042 160.123 228.662C161.322 228.267 162.616 228.07 164.004 228.07C165.408 228.07 166.695 228.282 167.864 228.706C169.048 229.115 170.064 229.707 170.912 230.482C171.775 231.242 172.448 232.171 172.93 233.267C173.412 234.364 173.654 235.599 173.654 236.973C173.654 238.143 173.478 239.225 173.127 240.219C172.791 241.213 172.331 242.164 171.746 243.07C171.161 243.976 170.474 244.861 169.684 245.724C168.91 246.572 168.091 247.434 167.228 248.311L159.597 256.118C160.225 255.943 160.854 255.804 161.483 255.702C162.126 255.599 162.733 255.548 163.303 255.548H172.579ZM219.535 244.21C219.535 246.974 219.235 249.364 218.636 251.382C218.051 253.399 217.239 255.073 216.201 256.403C215.163 257.734 213.943 258.721 212.539 259.364C211.135 260.007 209.622 260.329 207.999 260.329C206.377 260.329 204.864 260.007 203.46 259.364C202.056 258.721 200.836 257.734 199.798 256.403C198.774 255.073 197.97 253.399 197.385 251.382C196.801 249.364 196.508 246.974 196.508 244.21C196.508 241.447 196.801 239.057 197.385 237.039C197.97 235.007 198.774 233.333 199.798 232.017C200.836 230.687 202.056 229.7 203.46 229.057C204.864 228.399 206.377 228.07 207.999 228.07C209.622 228.07 211.135 228.399 212.539 229.057C213.943 229.7 215.163 230.687 216.201 232.017C217.239 233.333 218.051 235.007 218.636 237.039C219.235 239.057 219.535 241.447 219.535 244.21ZM214.666 244.21C214.666 241.871 214.476 239.927 214.096 238.377C213.731 236.813 213.241 235.563 212.627 234.627C212.013 233.691 211.304 233.026 210.5 232.631C209.695 232.237 208.862 232.039 207.999 232.039C207.122 232.039 206.282 232.237 205.478 232.631C204.688 233.026 203.986 233.691 203.372 234.627C202.758 235.563 202.268 236.813 201.903 238.377C201.537 239.927 201.355 241.871 201.355 244.21C201.355 246.55 201.537 248.501 201.903 250.066C202.268 251.615 202.758 252.858 203.372 253.794C203.986 254.729 204.688 255.395 205.478 255.789C206.282 256.184 207.122 256.382 207.999 256.382C208.862 256.382 209.695 256.184 210.5 255.789C211.304 255.395 212.013 254.729 212.627 253.794C213.241 252.858 213.731 251.615 214.096 250.066C214.476 248.501 214.666 246.55 214.666 244.21ZM261.183 255.548C261.695 255.548 262.097 255.702 262.389 256.009C262.682 256.301 262.828 256.681 262.828 257.149V260H241.468V258.399C241.468 258.077 241.534 257.741 241.665 257.39C241.797 257.039 242.009 256.718 242.301 256.425L252.126 246.579C252.959 245.745 253.698 244.949 254.341 244.188C254.999 243.428 255.554 242.668 256.008 241.908C256.476 241.148 256.826 240.38 257.06 239.605C257.309 238.816 257.433 237.99 257.433 237.127C257.433 236.294 257.302 235.563 257.038 234.934C256.79 234.291 256.439 233.764 255.986 233.355C255.547 232.931 255.014 232.617 254.385 232.412C253.771 232.193 253.091 232.083 252.345 232.083C251.629 232.083 250.964 232.185 250.35 232.39C249.75 232.595 249.209 232.88 248.727 233.245C248.259 233.611 247.864 234.049 247.543 234.561C247.236 235.058 247.009 235.607 246.863 236.206C246.644 236.805 246.358 237.207 246.008 237.412C245.671 237.617 245.174 237.661 244.516 237.544L242.038 237.105C242.258 235.614 242.667 234.305 243.266 233.18C243.88 232.054 244.648 231.118 245.569 230.373C246.49 229.612 247.543 229.042 248.727 228.662C249.926 228.267 251.22 228.07 252.609 228.07C254.012 228.07 255.299 228.282 256.468 228.706C257.652 229.115 258.669 229.707 259.516 230.482C260.379 231.242 261.052 232.171 261.534 233.267C262.017 234.364 262.258 235.599 262.258 236.973C262.258 238.143 262.082 239.225 261.731 240.219C261.395 241.213 260.935 242.164 260.35 243.07C259.765 243.976 259.078 244.861 258.288 245.724C257.514 246.572 256.695 247.434 255.832 248.311L248.201 256.118C248.829 255.943 249.458 255.804 250.087 255.702C250.73 255.599 251.337 255.548 251.907 255.548H261.183ZM296.582 256.447C297.532 256.447 298.402 256.294 299.191 255.987C299.981 255.665 300.653 255.227 301.209 254.671C301.779 254.115 302.218 253.458 302.525 252.697C302.832 251.937 302.985 251.111 302.985 250.219C302.985 249.254 302.832 248.392 302.525 247.631C302.232 246.857 301.808 246.206 301.253 245.68C300.712 245.153 300.054 244.751 299.279 244.474C298.519 244.181 297.678 244.035 296.757 244.035C295.807 244.035 294.944 244.196 294.169 244.517C293.409 244.839 292.758 245.278 292.218 245.833C291.677 246.389 291.26 247.039 290.968 247.785C290.675 248.531 290.529 249.32 290.529 250.153C290.529 251.089 290.661 251.944 290.924 252.719C291.187 253.494 291.574 254.159 292.086 254.715C292.598 255.256 293.226 255.68 293.972 255.987C294.732 256.294 295.602 256.447 296.582 256.447ZM294.849 240.044C294.615 240.336 294.389 240.614 294.169 240.877C293.965 241.14 293.76 241.403 293.555 241.667C294.228 241.286 294.966 240.987 295.77 240.767C296.574 240.548 297.437 240.438 298.358 240.438C299.586 240.438 300.763 240.643 301.889 241.052C303.014 241.447 304.001 242.047 304.849 242.851C305.712 243.64 306.399 244.627 306.911 245.811C307.422 246.981 307.678 248.333 307.678 249.868C307.678 251.33 307.408 252.697 306.867 253.969C306.34 255.241 305.595 256.352 304.63 257.303C303.665 258.238 302.503 258.984 301.143 259.539C299.798 260.08 298.307 260.351 296.669 260.351C295.032 260.351 293.555 260.088 292.239 259.561C290.924 259.035 289.798 258.297 288.862 257.346C287.941 256.382 287.232 255.227 286.735 253.882C286.238 252.536 285.989 251.038 285.989 249.386C285.989 247.953 286.296 246.455 286.91 244.89C287.525 243.326 288.475 241.681 289.761 239.956L297.525 229.539C297.759 229.232 298.095 228.969 298.533 228.75C298.987 228.53 299.491 228.421 300.047 228.421H304.213L294.849 240.044Z" fill="white"/>
<defs>
<linearGradient id="paint0_linear_1489_6996" x1="159.786" y1="81" x2="159.786" y2="206" gradientUnits="userSpaceOnUse">
<stop stop-color="#EEDEB4"/>
<stop offset="1" stop-color="#FFD43B"/>
</linearGradient>
<linearGradient id="paint1_linear_1489_6996" x1="159.786" y1="81" x2="159.786" y2="206" gradientUnits="userSpaceOnUse">
<stop stop-color="#EEDEB4"/>
<stop offset="1" stop-color="#FFD43B"/>
</linearGradient>
<linearGradient id="paint2_linear_1489_6996" x1="159.786" y1="81" x2="159.786" y2="206" gradientUnits="userSpaceOnUse">
<stop stop-color="#EEDEB4"/>
<stop offset="1" stop-color="#FFD43B"/>
</linearGradient>
<linearGradient id="paint3_linear_1489_6996" x1="159.786" y1="81" x2="159.786" y2="206" gradientUnits="userSpaceOnUse">
<stop stop-color="#EEDEB4"/>
<stop offset="1" stop-color="#FFD43B"/>
</linearGradient>
</defs>
</svg>
