<svg width="146" height="32" viewBox="0 0 146 32" fill="none" xmlns="http://www.w3.org/2000/svg">
<path d="M11.5021 22.8574C17.8545 22.8574 23.0042 17.7406 23.0042 11.4288C23.0042 10.7134 22.938 10.0135 22.8115 9.33452C22.1282 9.20879 21.4237 9.14307 20.7038 9.14307C14.3513 9.14307 9.20166 14.2598 9.20166 20.5716C9.20166 21.287 9.2678 21.987 9.39435 22.6659C10.0776 22.7916 10.7821 22.8574 11.5021 22.8574Z" fill="#175CD3"/>
<path fill-rule="evenodd" clip-rule="evenodd" d="M9.39437 22.6657C4.04855 21.682 0 17.0251 0 11.4286C0 5.11675 5.14967 0 11.5021 0C17.1346 0 21.8215 4.02267 22.8115 9.33432C22.1282 9.20858 21.4237 9.14286 20.7038 9.14286C14.3513 9.14286 9.20168 14.2596 9.20168 20.5714C9.20168 21.2868 9.26783 21.9868 9.39437 22.6657Z" fill="#1570EF"/>
<path fill-rule="evenodd" clip-rule="evenodd" d="M11.5021 22.8573C17.8545 22.8573 23.0042 17.7406 23.0042 11.4287C23.0042 10.7134 22.938 10.0134 22.8115 9.33447C28.1573 10.3182 32.2059 14.9751 32.2059 20.5716C32.2059 26.8834 27.0562 32.0002 20.7038 32.0002C15.0713 32.0002 10.3844 27.9775 9.39435 22.6658C10.0776 22.7916 10.7821 22.8573 11.5021 22.8573Z" fill="#2E90FA"/>
<path d="M39.7206 9.98355H42.5198L45.2425 19.9622L47.9907 9.98355H50.7133L46.4337 23.1279H43.9577L39.7206 9.98355Z" fill="#0F3D8D"/>
<path d="M59.06 20.2743C58.9976 20.851 58.7112 21.4366 58.2007 22.0311C57.4066 22.9763 56.2948 23.4489 54.8654 23.4489C53.6856 23.4489 52.6447 23.0506 51.7429 22.254C50.841 21.4574 50.39 20.1614 50.39 18.366C50.39 16.6835 50.7956 15.3935 51.6067 14.4958C52.4235 13.5981 53.4814 13.1493 54.7803 13.1493C55.5517 13.1493 56.2466 13.3008 56.8649 13.604C57.4831 13.9072 57.9936 14.3858 58.3964 15.0398C58.7594 15.6164 58.9948 16.2852 59.1026 17.0462C59.165 17.4921 59.1905 18.1341 59.1791 18.9724H52.8319C52.866 19.9473 53.1581 20.631 53.7083 21.0234C54.0429 21.2671 54.4457 21.389 54.9165 21.389C55.4156 21.389 55.8212 21.2404 56.1332 20.9431C56.3033 20.7826 56.4536 20.5597 56.5841 20.2743H59.06ZM56.6607 17.2959C56.621 16.6241 56.4253 16.1158 56.0736 15.771C55.7276 15.4202 55.2965 15.2449 54.7803 15.2449C54.2188 15.2449 53.782 15.4292 53.47 15.7977C53.1637 16.1663 52.9709 16.6657 52.8915 17.2959H56.6607Z" fill="#0F3D8D"/>
<path d="M65.186 15.2894C64.3635 15.2894 63.7992 15.6551 63.4929 16.3863C63.334 16.7727 63.2546 17.2661 63.2546 17.8666V23.1279H60.8383V13.4257H63.178V14.8436C63.49 14.3442 63.785 13.9845 64.0629 13.7646C64.5621 13.3722 65.1945 13.176 65.9603 13.176C66.9189 13.176 67.7016 13.4406 68.3086 13.9697C68.9212 14.4928 69.2275 15.3638 69.2275 16.5825V23.1279H66.743V17.2156C66.743 16.7043 66.6778 16.312 66.5473 16.0385C66.3091 15.5391 65.8553 15.2894 65.186 15.2894Z" fill="#0F3D8D"/>
<path d="M75.8384 15.2894C75.016 15.2894 74.4516 15.6551 74.1453 16.3863C73.9865 16.7727 73.9071 17.2661 73.9071 17.8666V23.1279H71.4907V13.4257H73.8305V14.8436C74.1425 14.3442 74.4374 13.9845 74.7153 13.7646C75.2145 13.3722 75.847 13.176 76.6127 13.176C77.5713 13.176 78.3541 13.4406 78.961 13.9697C79.5736 14.4928 79.8799 15.3638 79.8799 16.5825V23.1279H77.3955V17.2156C77.3955 16.7043 77.3302 16.312 77.1998 16.0385C76.9615 15.5391 76.5078 15.2894 75.8384 15.2894Z" fill="#0F3D8D"/>
<path d="M86.8738 21.2285C87.492 21.2285 87.994 21.1571 88.3797 21.0145C89.1114 20.741 89.4773 20.2327 89.4773 19.4896C89.4773 19.0556 89.2958 18.7197 88.9328 18.4819C88.5697 18.25 87.9997 18.0449 87.2226 17.8666L85.8953 17.5545C84.5907 17.2453 83.6888 16.9095 83.1896 16.5468C82.3445 15.9404 81.9219 14.9922 81.9219 13.7021C81.9219 12.525 82.3303 11.5471 83.1471 10.7683C83.9639 9.98949 85.1636 9.6001 86.7461 9.6001C88.0678 9.6001 89.1937 9.96869 90.1239 10.7059C91.0599 11.4371 91.5505 12.5012 91.5959 13.8983H89.0774C89.032 13.1076 88.703 12.5458 88.0904 12.2129C87.682 11.993 87.1744 11.883 86.5675 11.883C85.8925 11.883 85.3536 12.0256 84.9509 12.311C84.5481 12.5964 84.3468 12.9947 84.3468 13.5059C84.3468 13.9756 84.5453 14.3264 84.9424 14.5582C85.1976 14.7128 85.7421 14.8941 86.576 15.1022L88.7371 15.6461C89.6843 15.8839 90.399 16.202 90.8812 16.6003C91.6299 17.2186 92.0043 18.1133 92.0043 19.2845C92.0043 20.4854 91.5647 21.4841 90.6855 22.2807C89.812 23.0714 88.5754 23.4668 86.9759 23.4668C85.3423 23.4668 84.0575 23.0774 83.1216 22.2986C82.1857 21.5138 81.7177 20.4378 81.7177 19.0705H84.2192C84.2986 19.6709 84.4546 20.1197 84.6871 20.417C85.1125 20.958 85.8414 21.2285 86.8738 21.2285Z" fill="#0F3D8D"/>
<path d="M102.129 17.4207V23.1279H99.6533V17.2156C99.6533 16.6925 99.5682 16.2704 99.398 15.9493C99.1768 15.4975 98.7571 15.2716 98.1388 15.2716C97.4978 15.2716 97.01 15.4975 96.6754 15.9493C96.3464 16.3952 96.1819 17.0343 96.1819 17.8666V23.1279H93.7655V10.0281H96.1819V14.6741C96.5335 14.1094 96.9391 13.717 97.3986 13.497C97.8637 13.2711 98.3515 13.1582 98.862 13.1582C99.4349 13.1582 99.9539 13.2622 100.419 13.4703C100.89 13.6784 101.276 13.9964 101.576 14.4244C101.831 14.7871 101.987 15.1616 102.044 15.5481C102.101 15.9285 102.129 16.5528 102.129 17.4207Z" fill="#0F3D8D"/>
<path d="M104.75 14.4601C105.391 13.604 106.491 13.176 108.051 13.176C109.066 13.176 109.968 13.3871 110.757 13.8091C111.545 14.2312 111.939 15.0279 111.939 16.199V20.6578C111.939 20.9669 111.945 21.3414 111.956 21.7814C111.973 22.1143 112.022 22.3402 112.101 22.4591C112.18 22.578 112.299 22.6761 112.458 22.7534V23.1279H109.821C109.747 22.9317 109.696 22.7474 109.668 22.575C109.639 22.4026 109.617 22.2064 109.6 21.9865C109.265 22.3669 108.879 22.6909 108.442 22.9585C107.921 23.2736 107.331 23.4311 106.673 23.4311C105.833 23.4311 105.138 23.1814 104.588 22.682C104.044 22.1767 103.771 21.4633 103.771 20.5418C103.771 19.3469 104.211 18.4819 105.09 17.9468C105.572 17.6555 106.281 17.4475 107.217 17.3226L108.042 17.2156C108.491 17.1562 108.811 17.0819 109.004 16.9927C109.35 16.8381 109.523 16.5973 109.523 16.2704C109.523 15.8721 109.39 15.5986 109.123 15.45C108.862 15.2954 108.476 15.2181 107.966 15.2181C107.393 15.2181 106.987 15.3667 106.749 15.664C106.579 15.8839 106.466 16.1812 106.409 16.5557H104.069C104.12 15.7056 104.347 15.0071 104.75 14.4601ZM106.554 21.2909C106.78 21.4871 107.058 21.5852 107.387 21.5852C107.909 21.5852 108.388 21.4247 108.825 21.1036C109.268 20.7826 109.497 20.197 109.514 19.3469V18.4016C109.361 18.5027 109.205 18.5859 109.046 18.6513C108.893 18.7108 108.681 18.7673 108.408 18.8208L107.864 18.9278C107.353 19.0229 106.987 19.1388 106.766 19.2756C106.392 19.5074 106.205 19.8671 106.205 20.3546C106.205 20.7886 106.321 21.1007 106.554 21.2909Z" fill="#0F3D8D"/>
<path d="M118.763 15.7532C117.787 15.7532 117.132 16.0861 116.798 16.7519C116.61 17.1264 116.517 17.7031 116.517 18.4819V23.1279H114.075V13.4079H116.389V15.1022C116.764 14.4542 117.09 14.0113 117.368 13.7735C117.821 13.3752 118.411 13.176 119.137 13.176C119.183 13.176 119.22 13.179 119.248 13.1849C119.282 13.1849 119.353 13.1879 119.461 13.1938V15.7977C119.308 15.7799 119.171 15.768 119.052 15.7621C118.933 15.7561 118.837 15.7532 118.763 15.7532Z" fill="#0F3D8D"/>
<path d="M128.828 20.2743C128.766 20.851 128.479 21.4366 127.969 22.0311C127.175 22.9763 126.063 23.4489 124.634 23.4489C123.454 23.4489 122.413 23.0506 121.511 22.254C120.609 21.4574 120.158 20.1614 120.158 18.366C120.158 16.6835 120.564 15.3935 121.375 14.4958C122.192 13.5981 123.25 13.1493 124.549 13.1493C125.32 13.1493 126.015 13.3008 126.633 13.604C127.251 13.9072 127.762 14.3858 128.165 15.0398C128.528 15.6164 128.763 16.2852 128.871 17.0462C128.933 17.4921 128.959 18.1341 128.947 18.9724H122.6C122.634 19.9473 122.926 20.631 123.477 21.0234C123.811 21.2671 124.214 21.389 124.685 21.389C125.184 21.389 125.589 21.2404 125.901 20.9431C126.072 20.7826 126.222 20.5597 126.352 20.2743H128.828ZM126.429 17.2959C126.389 16.6241 126.194 16.1158 125.842 15.771C125.496 15.4202 125.065 15.2449 124.549 15.2449C123.987 15.2449 123.55 15.4292 123.238 15.7977C122.932 16.1663 122.739 16.6657 122.66 17.2959H126.429Z" fill="#0F3D8D"/>
<path d="M136.979 13.8537C137.705 14.3412 138.122 15.1795 138.23 16.3685H135.805C135.771 16.0415 135.683 15.7829 135.541 15.5926C135.275 15.2478 134.821 15.0754 134.18 15.0754C133.653 15.0754 133.275 15.1616 133.048 15.334C132.827 15.5064 132.717 15.7086 132.717 15.9404C132.717 16.2317 132.836 16.4428 133.074 16.5736C133.312 16.7103 134.155 16.9451 135.601 17.278C136.565 17.5158 137.288 17.8755 137.771 18.3571C138.247 18.8445 138.485 19.4539 138.485 20.1851C138.485 21.1482 138.142 21.9359 137.456 22.5483C136.775 23.1547 135.72 23.4578 134.291 23.4578C132.833 23.4578 131.755 23.1368 131.058 22.4948C130.366 21.8468 130.02 21.0234 130.02 20.0246H132.478C132.529 20.4764 132.64 20.7975 132.81 20.9877C133.111 21.3266 133.667 21.496 134.478 21.496C134.954 21.496 135.332 21.4217 135.609 21.2731C135.893 21.1244 136.035 20.9015 136.035 20.6043C136.035 20.3189 135.921 20.1019 135.695 19.9533C135.468 19.8047 134.625 19.549 133.168 19.1864C132.118 18.9129 131.378 18.5711 130.947 18.1609C130.516 17.7566 130.3 17.174 130.3 16.413C130.3 15.5154 130.635 14.7455 131.304 14.1034C131.979 13.4554 132.927 13.1314 134.146 13.1314C135.303 13.1314 136.248 13.3722 136.979 13.8537Z" fill="#0F3D8D"/>
</svg>
