<svg width="146" height="32" viewBox="0 0 146 32" fill="none" xmlns="http://www.w3.org/2000/svg">
<path d="M62.0011 14.9397H55.7999L54.9466 17.8343H49.3823L56.0042 0.299033H61.941L68.5629 17.8343H62.8664L62.0011 14.9397ZM60.8594 11.1479L58.9125 4.84433L56.9776 11.1479H60.8594Z" fill="#14193D"/>
<path d="M69.0796 0.299033H85.6283V4.62902H80.076V17.8343H74.6319V4.62902H69.0796V0.299033Z" fill="#14193D"/>
<path d="M88.104 0.299033H93.5481V13.5163H102.045V17.8343H88.104V0.299033Z" fill="#14193D"/>
<path d="M115.361 14.9397H109.159L108.306 17.8343H102.742L109.364 0.299033H115.3L121.922 17.8343H116.226L115.361 14.9397ZM114.219 11.1479L112.272 4.84433L110.337 11.1479H114.219Z" fill="#14193D"/>
<path d="M122.727 12.0331L127.907 11.7101C128.019 12.5474 128.248 13.1853 128.592 13.6239C129.153 14.3336 129.954 14.6885 130.996 14.6885C131.773 14.6885 132.37 14.5091 132.786 14.1502C133.211 13.7834 133.423 13.3608 133.423 12.8823C133.423 12.4278 133.223 12.0211 132.823 11.6623C132.422 11.3034 131.493 10.9645 130.034 10.6456C127.647 10.1113 125.944 9.40158 124.927 8.51645C123.901 7.63131 123.388 6.50296 123.388 5.1314C123.388 4.23031 123.649 3.38106 124.17 2.58364C124.698 1.77825 125.488 1.14829 126.537 0.693756C127.595 0.231252 129.041 0 130.876 0C133.127 0 134.842 0.418646 136.019 1.25594C137.205 2.08525 137.91 3.40897 138.134 5.22709L133.003 5.52612C132.867 4.73668 132.578 4.16253 132.137 3.80369C131.705 3.44486 131.104 3.26544 130.335 3.26544C129.702 3.26544 129.225 3.401 128.905 3.67212C128.584 3.93527 128.424 4.25822 128.424 4.64099C128.424 4.92008 128.556 5.17127 128.821 5.39455C129.077 5.6258 129.686 5.8411 130.647 6.04046C133.027 6.55081 134.729 7.06913 135.755 7.59543C136.788 8.11375 137.538 8.75966 138.002 9.53316C138.475 10.3067 138.711 11.1719 138.711 12.1288C138.711 13.2531 138.399 14.2898 137.774 15.2387C137.149 16.1876 136.276 16.9093 135.154 17.4037C134.032 17.8901 132.618 18.1333 130.912 18.1333C127.915 18.1333 125.84 17.5592 124.686 16.4109C123.533 15.2626 122.88 13.8033 122.727 12.0331Z" fill="#14193D"/>
<path d="M47.2353 31.8595L50.6123 23.6131H51.8659L55.4648 31.8595H54.1392L53.1135 29.3619H49.4366L48.4709 31.8595H47.2353ZM49.7725 28.4732H52.7536L51.8359 26.1894C51.556 25.4956 51.348 24.9256 51.2121 24.4793C51.1001 25.0081 50.9422 25.5331 50.7382 26.0544L49.7725 28.4732Z" fill="#14193D"/>
<path d="M55.9986 29.2101L57.0963 29.1201C57.1483 29.5326 57.2683 29.872 57.4562 30.1382C57.6481 30.4007 57.9441 30.6145 58.3439 30.7795C58.7438 30.9407 59.1937 31.0214 59.6935 31.0214C60.1374 31.0214 60.5293 30.9595 60.8692 30.8357C61.2091 30.712 61.461 30.5432 61.6249 30.3295C61.7929 30.112 61.8769 29.8757 61.8769 29.6207C61.8769 29.3619 61.7969 29.1369 61.6369 28.9457C61.477 28.7507 61.2131 28.5875 60.8452 28.4563C60.6093 28.37 60.0874 28.2369 59.2797 28.0569C58.4719 27.8732 57.9061 27.7007 57.5822 27.5394C57.1623 27.3331 56.8484 27.0781 56.6404 26.7744C56.4365 26.4669 56.3345 26.1237 56.3345 25.745C56.3345 25.3287 56.4605 24.9406 56.7124 24.5806C56.9644 24.2168 57.3322 23.9412 57.8161 23.7537C58.2999 23.5662 58.8378 23.4724 59.4296 23.4724C60.0814 23.4724 60.6552 23.5718 61.1511 23.7706C61.6509 23.9656 62.0348 24.2543 62.3027 24.6368C62.5707 25.0193 62.7146 25.4525 62.7346 25.9362L61.6189 26.015C61.559 25.4937 61.355 25.1 61.0071 24.8337C60.6632 24.5674 60.1534 24.4343 59.4776 24.4343C58.7738 24.4343 58.26 24.5562 57.9361 24.8C57.6162 25.04 57.4562 25.3306 57.4562 25.6719C57.4562 25.9681 57.5702 26.2119 57.7981 26.4031C58.022 26.5944 58.6059 26.7913 59.5496 26.9938C60.4973 27.1925 61.1471 27.3669 61.499 27.5169C62.0108 27.7382 62.3887 28.0194 62.6326 28.3607C62.8766 28.6982 62.9985 29.0882 62.9985 29.5307C62.9985 29.9695 62.8646 30.3838 62.5967 30.7738C62.3287 31.1601 61.9428 31.462 61.439 31.6795C60.9392 31.8933 60.3753 32.0001 59.7475 32.0001C58.9518 32.0001 58.284 31.8914 57.7441 31.6739C57.2083 31.4564 56.7864 31.1301 56.4785 30.6951C56.1746 30.2563 56.0146 29.7613 55.9986 29.2101Z" fill="#14193D"/>
<path d="M64.1922 29.2101L65.2898 29.1201C65.3418 29.5326 65.4618 29.872 65.6497 30.1382C65.8417 30.4007 66.1376 30.6145 66.5375 30.7795C66.9373 30.9407 67.3872 31.0214 67.8871 31.0214C68.3309 31.0214 68.7228 30.9595 69.0627 30.8357C69.4026 30.712 69.6545 30.5432 69.8185 30.3295C69.9864 30.112 70.0704 29.8757 70.0704 29.6207C70.0704 29.3619 69.9904 29.1369 69.8305 28.9457C69.6705 28.7507 69.4066 28.5875 69.0387 28.4563C68.8028 28.37 68.2809 28.2369 67.4732 28.0569C66.6654 27.8732 66.0996 27.7007 65.7757 27.5394C65.3558 27.3331 65.0419 27.0781 64.834 26.7744C64.63 26.4669 64.5281 26.1237 64.5281 25.745C64.5281 25.3287 64.654 24.9406 64.906 24.5806C65.1579 24.2168 65.5258 23.9412 66.0096 23.7537C66.4935 23.5662 67.0313 23.4724 67.6231 23.4724C68.2749 23.4724 68.8488 23.5718 69.3446 23.7706C69.8445 23.9656 70.2283 24.2543 70.4963 24.6368C70.7642 25.0193 70.9081 25.4525 70.9281 25.9362L69.8125 26.015C69.7525 25.4937 69.5485 25.1 69.2007 24.8337C68.8568 24.5674 68.3469 24.4343 67.6711 24.4343C66.9673 24.4343 66.4535 24.5562 66.1296 24.8C65.8097 25.04 65.6497 25.3306 65.6497 25.6719C65.6497 25.9681 65.7637 26.2119 65.9916 26.4031C66.2156 26.5944 66.7994 26.7913 67.7431 26.9938C68.6908 27.1925 69.3406 27.3669 69.6925 27.5169C70.2044 27.7382 70.5822 28.0194 70.8262 28.3607C71.0701 28.6982 71.1921 29.0882 71.1921 29.5307C71.1921 29.9695 71.0581 30.3838 70.7902 30.7738C70.5223 31.1601 70.1364 31.462 69.6325 31.6795C69.1327 31.8933 68.5688 32.0001 67.941 32.0001C67.1453 32.0001 66.4775 31.8914 65.9376 31.6739C65.4018 31.4564 64.9799 31.1301 64.672 30.6951C64.3681 30.2563 64.2082 29.7613 64.1922 29.2101Z" fill="#14193D"/>
<path d="M72.8056 31.8595V23.6131H79.1636V24.5862H73.9692V27.1119H78.8337V28.0794H73.9692V30.8864H79.3676V31.8595H72.8056Z" fill="#14193D"/>
<path d="M83.2124 31.8595V24.5862H80.3153V23.6131H87.2852V24.5862H84.3761V31.8595H83.2124Z" fill="#14193D"/>
<path d="M95.7906 28.625V27.6575L99.5155 27.6519V30.712C98.9437 31.1395 98.3539 31.462 97.746 31.6795C97.1382 31.8933 96.5144 32.0001 95.8746 32.0001C95.0109 32.0001 94.2251 31.8276 93.5173 31.4826C92.8135 31.1339 92.2817 30.6313 91.9218 29.9751C91.5619 29.3188 91.382 28.5857 91.382 27.7757C91.382 26.9731 91.5599 26.225 91.9158 25.5312C92.2757 24.8337 92.7915 24.3162 93.4633 23.9787C94.1351 23.6412 94.9089 23.4724 95.7846 23.4724C96.4204 23.4724 96.9943 23.5699 97.5061 23.7649C98.0219 23.9562 98.4258 24.2243 98.7177 24.5693C99.0097 24.9143 99.2316 25.3643 99.3835 25.9194L98.3339 26.1894C98.2019 25.7694 98.0379 25.4393 97.842 25.1993C97.6461 24.9593 97.3661 24.7681 97.0023 24.6256C96.6384 24.4793 96.2345 24.4062 95.7906 24.4062C95.2588 24.4062 94.7989 24.4831 94.411 24.6368C94.0232 24.7868 93.7093 24.9856 93.4693 25.2331C93.2334 25.4806 93.0494 25.7525 92.9175 26.0487C92.6936 26.5587 92.5816 27.1119 92.5816 27.7082C92.5816 28.4432 92.7156 29.0582 92.9835 29.5532C93.2554 30.0482 93.6493 30.4157 94.1651 30.6557C94.681 30.8957 95.2288 31.0157 95.8086 31.0157C96.3125 31.0157 96.8043 30.9257 97.2842 30.7457C97.764 30.562 98.1279 30.367 98.3758 30.1607V28.625H95.7906Z" fill="#14193D"/>
<path d="M101.255 31.8595V23.6131H105.154C105.938 23.6131 106.533 23.6881 106.941 23.8381C107.349 23.9843 107.675 24.2449 107.919 24.6199C108.163 24.995 108.285 25.4093 108.285 25.8631C108.285 26.4481 108.083 26.9413 107.679 27.3425C107.275 27.7438 106.651 27.9988 105.808 28.1075C106.116 28.2463 106.349 28.3832 106.509 28.5182C106.849 28.8107 107.171 29.1763 107.475 29.6151L109.005 31.8595H107.541L106.377 30.1438C106.038 29.6488 105.758 29.2701 105.538 29.0076C105.318 28.7451 105.12 28.5613 104.944 28.4563C104.772 28.3513 104.596 28.2782 104.416 28.2369C104.284 28.2107 104.068 28.1975 103.768 28.1975H102.419V31.8595H101.255ZM102.419 27.2525H104.92C105.452 27.2525 105.868 27.2019 106.167 27.1006C106.467 26.9956 106.695 26.8306 106.851 26.6056C107.007 26.3769 107.085 26.1294 107.085 25.8631C107.085 25.4731 106.933 25.1525 106.629 24.9012C106.329 24.65 105.854 24.5243 105.202 24.5243H102.419V27.2525Z" fill="#14193D"/>
<path d="M109.76 27.8432C109.76 26.4744 110.152 25.4037 110.936 24.6312C111.72 23.8549 112.732 23.4668 113.971 23.4668C114.783 23.4668 115.515 23.6487 116.166 24.0124C116.818 24.3762 117.314 24.8843 117.654 25.5368C117.998 26.1856 118.17 26.9225 118.17 27.7475C118.17 28.5838 117.99 29.3319 117.63 29.992C117.27 30.652 116.76 31.1526 116.1 31.4939C115.441 31.8314 114.729 32.0001 113.965 32.0001C113.137 32.0001 112.398 31.8126 111.746 31.4376C111.094 31.0626 110.6 30.5507 110.264 29.902C109.928 29.2532 109.76 28.5669 109.76 27.8432ZM110.96 27.86C110.96 28.8538 111.244 29.6376 111.812 30.2113C112.384 30.7814 113.099 31.0664 113.959 31.0664C114.835 31.0664 115.555 30.7776 116.118 30.2001C116.686 29.6226 116.97 28.8032 116.97 27.7419C116.97 27.0706 116.848 26.4856 116.604 25.9869C116.364 25.4843 116.011 25.0962 115.543 24.8225C115.079 24.5449 114.557 24.4062 113.977 24.4062C113.153 24.4062 112.444 24.6725 111.848 25.205C111.256 25.7337 110.96 26.6187 110.96 27.86Z" fill="#14193D"/>
<path d="M125.446 23.6131H126.609V28.3775C126.609 29.2063 126.509 29.8645 126.309 30.352C126.109 30.8395 125.748 31.237 125.224 31.5445C124.704 31.8483 124.02 32.0001 123.172 32.0001C122.349 32.0001 121.675 31.867 121.151 31.6007C120.627 31.3345 120.253 30.9501 120.029 30.4476C119.805 29.9413 119.693 29.2513 119.693 28.3775V23.6131H120.857V28.3719C120.857 29.0882 120.927 29.6169 121.067 29.9582C121.211 30.2957 121.455 30.5563 121.799 30.7401C122.147 30.9239 122.571 31.0157 123.07 31.0157C123.926 31.0157 124.536 30.8339 124.9 30.4701C125.264 30.1063 125.446 29.4069 125.446 28.3719V23.6131Z" fill="#14193D"/>
<path d="M128.553 31.8595V23.6131H131.87C132.454 23.6131 132.899 23.6393 133.207 23.6918C133.639 23.7593 134.001 23.8887 134.293 24.0799C134.585 24.2674 134.819 24.5318 134.995 24.8731C135.175 25.2143 135.265 25.5893 135.265 25.9981C135.265 26.6994 135.027 27.2938 134.551 27.7813C134.075 28.265 133.215 28.5069 131.972 28.5069H129.716V31.8595H128.553ZM129.716 27.5338H131.99C132.741 27.5338 133.275 27.4025 133.591 27.14C133.907 26.8775 134.065 26.5081 134.065 26.0319C134.065 25.6869 133.971 25.3925 133.783 25.1487C133.599 24.9012 133.355 24.7381 133.051 24.6593C132.855 24.6106 132.494 24.5862 131.966 24.5862H129.716V27.5338Z" fill="#14193D"/>
<path d="M0 32L21.4706 0V12.4611L13.5949 24.4237H21.4706V32H0Z" fill="#F85016"/>
<path d="M42.9412 31.9999L21.4706 0.0996094V12.5218L28.3431 22.9283H20.6304L26.5115 31.9999H42.9412Z" fill="#AE2235"/>
</svg>
