<svg width="146" height="32" viewBox="0 0 146 32" fill="none" xmlns="http://www.w3.org/2000/svg">
<rect x="7.51471" y="12.7998" width="5.54735" height="6.39999" fill="#039855"/>
<rect x="24.1567" y="19.2002" width="5.54735" height="6.39999" transform="rotate(180 24.1567 19.2002)" fill="#027A48"/>
<path d="M13.0621 12.7999L18.6094 6.3999V12.7999L13.0621 19.1999V12.7999Z" fill="#A6F4C5"/>
<path d="M18.6094 19.2001L13.0621 25.6001L13.0621 19.2001L18.6094 12.8001L18.6094 19.2001Z" fill="#6CE9A6"/>
<path d="M7.51471 12.8L18.6094 0V6.39999L13.0621 12.8H7.51471Z" fill="#32D583"/>
<path d="M24.1567 19.2L13.062 32L13.062 25.6L18.6094 19.2L24.1567 19.2Z" fill="#12B76A"/>
<path d="M41.8897 18.1333C41.1471 18.1333 40.3846 18.0468 39.6023 17.8739C38.82 17.701 38.1437 17.4349 37.5735 17.0758L37.6929 14.1229H39.5426L39.9404 16.577C40.2454 16.6967 40.5504 16.7898 40.8554 16.8563C41.1604 16.9095 41.4985 16.9361 41.8698 16.9361C42.5858 16.9361 43.1295 16.7566 43.5007 16.3974C43.872 16.025 44.0577 15.5728 44.0577 15.0407C44.0577 14.5086 43.9184 14.0963 43.64 13.8037C43.3748 13.511 42.9438 13.2317 42.3471 12.9657L41.4919 12.5866C40.325 12.0412 39.4167 11.436 38.7669 10.771C38.1304 10.1059 37.8122 9.22136 37.8122 8.11735C37.8122 6.92022 38.2564 5.98248 39.1448 5.30411C40.0465 4.61244 41.2465 4.2666 42.7449 4.2666C43.461 4.2666 44.1439 4.35971 44.7936 4.54593C45.4566 4.71885 46.0268 4.96492 46.5041 5.28416L46.345 8.07744H44.5151L44.1372 5.7231C43.9251 5.64329 43.7129 5.58344 43.5007 5.54353C43.2886 5.49033 43.0565 5.46372 42.8046 5.46372C42.2344 5.46372 41.7504 5.62999 41.3526 5.96253C40.9548 6.29506 40.7559 6.734 40.7559 7.27936C40.7559 7.81141 40.9084 8.23706 41.2134 8.55629C41.5316 8.86222 41.9825 9.1482 42.5659 9.41423L43.5007 9.83322C44.7604 10.4052 45.6688 11.0104 46.2257 11.6489C46.7959 12.274 47.0809 13.0921 47.0809 14.103C47.0809 15.2735 46.6367 16.2378 45.7483 16.996C44.8732 17.7542 43.5869 18.1333 41.8897 18.1333Z" fill="#0A5433"/>
<path d="M55.9124 18.0335C54.7588 18.0335 54.0295 17.5547 53.7245 16.597C53.3002 17.0492 52.8891 17.4083 52.4913 17.6744C52.1068 17.9271 51.5698 18.0535 50.8803 18.0535C50.1112 18.0535 49.4813 17.834 48.9907 17.395C48.5133 16.9561 48.2747 16.3243 48.2747 15.4996C48.2747 15.0208 48.3807 14.5885 48.5929 14.2027C48.8051 13.817 49.1896 13.4578 49.7465 13.1253C50.3034 12.7928 51.0924 12.4802 52.1134 12.1876C52.3123 12.1211 52.5444 12.0545 52.8096 11.988C53.0748 11.9215 53.3466 11.855 53.6251 11.7885V11.1301C53.6251 10.2389 53.5124 9.6337 53.2869 9.31447C53.0748 8.99524 52.6505 8.83562 52.014 8.83562C51.9212 8.83562 51.835 8.83562 51.7554 8.83562C51.6759 8.83562 51.583 8.84227 51.477 8.85557L51.3775 9.73346C51.3642 10.3852 51.2118 10.8574 50.92 11.1501C50.6416 11.4427 50.3101 11.589 49.9255 11.589C49.1962 11.589 48.752 11.2565 48.5929 10.5914C48.6459 9.76671 49.0636 9.095 49.846 8.57624C50.6283 8.05749 51.7355 7.79811 53.1676 7.79811C54.4406 7.79811 55.3489 8.09074 55.8925 8.676C56.4495 9.26126 56.7279 10.2256 56.7279 11.569V16.0383C56.7279 16.424 56.8738 16.6169 57.1655 16.6169C57.2716 16.6169 57.371 16.5903 57.4638 16.5371C57.5567 16.4706 57.6561 16.3509 57.7622 16.178L58.2992 16.5371C58.0605 17.0692 57.7489 17.4549 57.3644 17.6943C56.9931 17.9204 56.5091 18.0335 55.9124 18.0335ZM51.2184 14.9808C51.2184 15.473 51.3311 15.8388 51.5565 16.0782C51.7952 16.3176 52.0803 16.4373 52.4118 16.4373C52.5576 16.4373 52.7101 16.4041 52.8693 16.3376C53.0284 16.2711 53.2803 16.1181 53.6251 15.8787V12.6465C53.4527 12.6997 53.2803 12.7595 53.1079 12.826C52.9488 12.8792 52.8096 12.9324 52.6902 12.9856C52.2394 13.1719 51.8814 13.4379 51.6162 13.7837C51.351 14.1163 51.2184 14.5153 51.2184 14.9808Z" fill="#0A5433"/>
<path d="M58.7816 17.7542V16.8164L59.8556 16.577C59.8689 16.0982 59.8755 15.5794 59.8755 15.0208C59.8755 14.4621 59.8755 13.9766 59.8755 13.5643V12.407C59.8755 11.8617 59.8689 11.4427 59.8556 11.1501C59.8556 10.8441 59.8424 10.4916 59.8158 10.0926L58.6026 9.91303V9.1349L62.5209 7.79811L62.8789 8.01759L62.9982 9.45413C63.5154 8.84227 64.0259 8.41663 64.5298 8.1772C65.0469 7.92448 65.5972 7.79811 66.1807 7.79811C67.0426 7.79811 67.7321 8.08409 68.2492 8.65605C68.7796 9.22801 69.0448 10.0859 69.0448 11.2299V13.5643C69.0448 14.0032 69.0448 14.502 69.0448 15.0607C69.0448 15.606 69.0514 16.1248 69.0647 16.6169L70.0592 16.8164V17.7542H64.8082V16.8164L65.8425 16.597C65.8558 16.1048 65.8624 15.5861 65.8624 15.0407C65.8624 14.482 65.8624 13.9899 65.8624 13.5643V11.4693C65.8624 10.8308 65.7762 10.3852 65.6038 10.1325C65.4315 9.86647 65.153 9.73346 64.7685 9.73346C64.2513 9.73346 63.6811 9.97289 63.0579 10.4517V13.5643C63.0579 13.9766 63.0579 14.4687 63.0579 15.0407C63.0579 15.5994 63.0645 16.1248 63.0778 16.6169L64.0126 16.8164V17.7542H58.7816Z" fill="#0A5433"/>
<path d="M76.2492 7.69835L74.5983 12.7861H77.8603L76.2492 7.69835ZM70.6601 17.7542V16.6768L72.2712 16.4373L76.3089 4.62574H78.3575L82.435 16.577L83.6483 16.7167V17.7542H77.5023V16.7167L79.0338 16.5172L78.2183 13.9433H74.2204L73.4248 16.4373L74.9365 16.6768V17.7542H70.6601Z" fill="#0A5433"/>
<path d="M84.4599 17.7542V16.8164L85.534 16.577C85.5472 16.0982 85.5538 15.5794 85.5538 15.0208C85.5538 14.4621 85.5538 13.9766 85.5538 13.5643V12.407C85.5538 11.8617 85.5472 11.4427 85.534 11.1501C85.534 10.8441 85.5207 10.4916 85.4942 10.0926L84.2809 9.91303V9.1349L88.1992 7.79811L88.5572 8.01759L88.6766 9.45413C89.1937 8.84227 89.7042 8.41663 90.2081 8.1772C90.7252 7.92448 91.2755 7.79811 91.859 7.79811C92.7209 7.79811 93.4104 8.08409 93.9275 8.65605C94.4579 9.22801 94.7231 10.0859 94.7231 11.2299V13.5643C94.7231 14.0032 94.7231 14.502 94.7231 15.0607C94.7231 15.606 94.7298 16.1248 94.743 16.6169L95.7375 16.8164V17.7542H90.4866V16.8164L91.5208 16.597C91.5341 16.1048 91.5407 15.5861 91.5407 15.0407C91.5407 14.482 91.5407 13.9899 91.5407 13.5643V11.4693C91.5407 10.8308 91.4545 10.3852 91.2822 10.1325C91.1098 9.86647 90.8313 9.73346 90.4468 9.73346C89.9296 9.73346 89.3595 9.97289 88.7362 10.4517V13.5643C88.7362 13.9766 88.7362 14.4687 88.7362 15.0407C88.7362 15.5994 88.7429 16.1248 88.7561 16.6169L89.691 16.8164V17.7542H84.4599Z" fill="#0A5433"/>
<path d="M100.398 18.0535C99.5099 18.0535 98.8138 17.8406 98.3099 17.415C97.806 16.9761 97.554 16.2644 97.554 15.2801C97.554 14.9343 97.554 14.6151 97.554 14.3224C97.5673 14.0165 97.5739 13.6707 97.5739 13.2849V9.47408H96.2811V8.29691L97.753 8.09739L98.7475 5.30411H100.776L100.736 8.11735H102.825V9.47408H100.736V15.0607C100.736 15.5262 100.829 15.872 101.015 16.0982C101.214 16.311 101.459 16.4174 101.751 16.4174C102.096 16.4174 102.454 16.2711 102.825 15.9784L103.322 16.4573C103.057 16.9627 102.686 17.3551 102.208 17.6345C101.744 17.9138 101.141 18.0535 100.398 18.0535Z" fill="#0A5433"/>
<path d="M108.742 18.0535C107.708 18.0535 106.813 17.8406 106.057 17.415C105.301 16.9761 104.718 16.3708 104.307 15.5994C103.895 14.8146 103.69 13.9101 103.69 12.8859C103.69 11.8617 103.909 10.9705 104.346 10.2123C104.797 9.45413 105.407 8.86222 106.176 8.43658C106.945 8.01093 107.801 7.79811 108.742 7.79811C109.683 7.79811 110.532 8.00428 111.288 8.41663C112.057 8.82897 112.667 9.42088 113.118 10.1924C113.569 10.9505 113.794 11.8484 113.794 12.8859C113.794 13.9234 113.589 14.8279 113.178 15.5994C112.766 16.3708 112.183 16.9761 111.427 17.415C110.671 17.8406 109.776 18.0535 108.742 18.0535ZM108.742 17.016C109.299 17.016 109.717 16.6901 109.995 16.0383C110.274 15.3865 110.413 14.3557 110.413 12.9457C110.413 11.5225 110.274 10.485 109.995 9.83322C109.717 9.18145 109.299 8.85557 108.742 8.85557C108.172 8.85557 107.748 9.18145 107.469 9.83322C107.191 10.485 107.051 11.5225 107.051 12.9457C107.051 14.3557 107.191 15.3865 107.469 16.0383C107.748 16.6901 108.172 17.016 108.742 17.016Z" fill="#0A5433"/>
<path d="M44.3041 26.875C43.7254 27.5028 42.8978 27.8167 41.8215 27.8167C41.363 27.8167 40.9437 27.7583 40.5635 27.6417C40.1861 27.5222 39.8702 27.3653 39.6158 27.1708C39.3613 26.9736 39.1461 26.7431 38.97 26.4792C38.7966 26.2153 38.6708 25.9417 38.5925 25.6583C38.5143 25.3722 38.4751 25.0792 38.4751 24.7792C38.4751 24.4653 38.5185 24.1625 38.6051 23.8708C38.6918 23.5792 38.826 23.3056 39.0077 23.05C39.1922 22.7944 39.4131 22.5722 39.6703 22.3833C39.9303 22.1917 40.2434 22.0417 40.6096 21.9333C40.9758 21.8222 41.3756 21.7667 41.8089 21.7667C42.6001 21.7667 43.3116 21.9417 43.9434 22.2917L44.0902 22.375L43.6499 23.2L43.4989 23.1208C43.3004 23.0208 43.0516 22.9319 42.7525 22.8542C42.4533 22.7736 42.1528 22.7333 41.8509 22.7333C41.5545 22.7333 41.268 22.7792 40.9912 22.8708C40.7144 22.9625 40.467 23.0917 40.249 23.2583C40.0337 23.425 39.8604 23.6375 39.729 23.8958C39.6004 24.1514 39.5361 24.4319 39.5361 24.7375C39.5361 25.1403 39.6423 25.5028 39.8548 25.825C40.0673 26.1472 40.3608 26.3986 40.7354 26.5792C41.1128 26.7569 41.5364 26.8458 42.006 26.8458C42.5204 26.8458 42.9412 26.7306 43.2683 26.5V25.3625H41.4022V24.4375H44.3041V26.875Z" fill="#0A5433"/>
<path d="M45.776 21.4375H46.8076V27.7333H45.776V21.4375Z" fill="#0A5433"/>
<path d="M50.5565 23.5375C51.2498 23.5375 51.8076 23.7194 52.2297 24.0833C52.6547 24.4444 52.8671 24.95 52.8671 25.6C52.8671 26.2833 52.6505 26.8236 52.2171 27.2208C51.7866 27.6181 51.2065 27.8167 50.4769 27.8167C49.7835 27.8167 49.2286 27.6306 48.812 27.2583C48.3983 26.8833 48.1914 26.3694 48.1914 25.7167C48.1914 25.0472 48.4025 24.5167 48.8246 24.125C49.2496 23.7333 49.8269 23.5375 50.5565 23.5375ZM50.4894 24.4625C50.2742 24.4625 50.0715 24.5028 49.8814 24.5833C49.6913 24.6639 49.5305 24.7944 49.3991 24.975C49.2705 25.1556 49.2062 25.3681 49.2062 25.6125C49.2062 25.9736 49.332 26.2778 49.5836 26.525C49.8352 26.7694 50.1623 26.8917 50.5649 26.8917C50.9311 26.8917 51.2373 26.7847 51.4833 26.5708C51.7293 26.3569 51.8523 26.0736 51.8523 25.7208C51.8523 25.5181 51.8118 25.3347 51.7307 25.1708C51.6496 25.0042 51.5434 24.8708 51.412 24.7708C51.2806 24.6708 51.1352 24.5944 50.9759 24.5417C50.8165 24.4889 50.6544 24.4625 50.4894 24.4625Z" fill="#0A5433"/>
<path d="M54.2132 21.4375H55.2448V23.7167C55.6055 23.5944 55.9731 23.5333 56.3477 23.5333C56.5602 23.5333 56.7643 23.5542 56.96 23.5958C57.1585 23.6347 57.3541 23.7056 57.547 23.8083C57.7399 23.9111 57.9063 24.0403 58.0461 24.1958C58.1887 24.3486 58.3033 24.5486 58.3899 24.7958C58.4794 25.0403 58.5241 25.3181 58.5241 25.6292C58.5241 26.3125 58.3159 26.8486 57.8993 27.2375C57.4827 27.6236 56.918 27.8167 56.2051 27.8167C55.783 27.8167 55.393 27.7444 55.0352 27.6L54.9764 27.7333H54.2132V21.4375ZM56.0709 24.4417C55.7942 24.4417 55.5188 24.4875 55.2448 24.5792V26.8167C55.5272 26.8972 55.8082 26.9375 56.0877 26.9375C56.2163 26.9375 56.3407 26.9278 56.4609 26.9083C56.5812 26.8889 56.7056 26.8528 56.8342 26.8C56.9656 26.7444 57.0788 26.6736 57.1738 26.5875C57.2717 26.5014 57.3514 26.3861 57.4129 26.2417C57.4772 26.0944 57.5093 25.9264 57.5093 25.7375C57.5093 25.5292 57.4772 25.3444 57.4129 25.1833C57.3486 25.0222 57.2675 24.8972 57.1696 24.8083C57.0718 24.7167 56.9558 24.6417 56.8216 24.5833C56.6874 24.525 56.5602 24.4875 56.44 24.4708C56.3226 24.4514 56.1995 24.4417 56.0709 24.4417Z" fill="#0A5433"/>
<path d="M61.5728 23.5375C61.8747 23.5375 62.1389 23.5653 62.3654 23.6208C62.5946 23.6736 62.7791 23.7444 62.9189 23.8333C63.0587 23.9222 63.1719 24.0333 63.2586 24.1667C63.3452 24.3 63.4039 24.4361 63.4347 24.575C63.4682 24.7111 63.485 24.8639 63.485 25.0333V27.7333H62.7134L62.596 27.4625C62.2242 27.6986 61.8006 27.8167 61.3254 27.8167C60.8082 27.8167 60.3888 27.6958 60.0673 27.4542C59.7458 27.2125 59.5851 26.9264 59.5851 26.5958C59.5851 26.3903 59.6368 26.2111 59.7402 26.0583C59.8465 25.9056 59.9849 25.7833 60.1554 25.6917C60.3259 25.6 60.5398 25.525 60.797 25.4667C61.0542 25.4083 61.3114 25.3681 61.5686 25.3458C61.8286 25.3236 62.1221 25.3111 62.4492 25.3083V25.1667C62.4492 25.0611 62.4394 24.9736 62.4199 24.9042C62.4031 24.8347 62.364 24.7611 62.3024 24.6833C62.2409 24.6056 62.1375 24.5472 61.9921 24.5083C61.8496 24.4667 61.6664 24.4458 61.4428 24.4458C61.1297 24.4458 60.7145 24.5069 60.1973 24.6292L60.0296 24.675L59.8157 23.8542L59.9625 23.8042C60.4797 23.6264 61.0164 23.5375 61.5728 23.5375ZM62.4492 26.6708V26.0833H62.3486C61.7839 26.0833 61.3631 26.1167 61.0863 26.1833C60.8124 26.25 60.6754 26.3625 60.6754 26.5208C60.6754 26.6208 60.7592 26.7153 60.927 26.8042C61.0947 26.8931 61.3002 26.9375 61.5434 26.9375C61.8873 26.9375 62.1892 26.8486 62.4492 26.6708Z" fill="#0A5433"/>
<path d="M65.0827 21.4375H66.1143V27.7333H65.0827V21.4375Z" fill="#0A5433"/>
<path d="M72.2074 21.8125H73.3648L75.7216 27.7333H74.6355L73.9687 26.1833H71.5365L70.8697 27.7333H69.8465L72.2074 21.8125ZM73.5997 25.2208L72.7526 23.025L71.9013 25.2208H73.5997Z" fill="#0A5433"/>
<path d="M79.177 26.5042C79.1714 26.4347 79.1169 26.3736 79.0134 26.3208C78.9128 26.2681 78.7828 26.2208 78.6234 26.1792C78.4641 26.1375 78.2894 26.0944 78.0993 26.05C77.9092 26.0056 77.7191 25.9514 77.529 25.8875C77.3416 25.8208 77.1697 25.7444 77.0132 25.6583C76.8566 25.5694 76.7294 25.4542 76.6315 25.3125C76.5337 25.1681 76.4848 25.0042 76.4848 24.8208C76.4848 24.7125 76.5043 24.6042 76.5435 24.4958C76.5854 24.3847 76.6595 24.2708 76.7657 24.1542C76.872 24.0347 77.0062 23.9306 77.1683 23.8417C77.3305 23.7528 77.5471 23.6806 77.8183 23.625C78.0895 23.5667 78.3956 23.5375 78.7367 23.5375C78.938 23.5375 79.1197 23.5486 79.2818 23.5708C79.444 23.5903 79.5586 23.6083 79.6257 23.625C79.6928 23.6417 79.7948 23.6708 79.9318 23.7125L80.1037 23.7625L79.8186 24.6042L79.6592 24.5625C79.2958 24.4625 78.9422 24.4125 78.5983 24.4125C78.425 24.4125 78.2726 24.425 78.1412 24.45C78.0098 24.4722 77.9092 24.5 77.8393 24.5333C77.7722 24.5639 77.7177 24.6014 77.6757 24.6458C77.6338 24.6875 77.6072 24.7236 77.596 24.7542C77.5849 24.7819 77.5793 24.8083 77.5793 24.8333C77.5793 24.8972 77.6282 24.9556 77.726 25.0083C77.8267 25.0611 77.9567 25.1097 78.116 25.1542C78.2754 25.1958 78.4501 25.2417 78.6402 25.2917C78.8331 25.3389 79.026 25.3972 79.2189 25.4667C79.4118 25.5361 79.5879 25.6153 79.7473 25.7042C79.9067 25.7931 80.0353 25.9069 80.1331 26.0458C80.2337 26.1847 80.2841 26.3403 80.2841 26.5125C80.2841 26.6319 80.2659 26.7472 80.2295 26.8583C80.196 26.9694 80.1289 27.0847 80.0283 27.2042C79.9304 27.3236 79.8032 27.4278 79.6467 27.5167C79.4901 27.6028 79.279 27.675 79.0134 27.7333C78.7479 27.7889 78.4431 27.8167 78.0993 27.8167C77.5625 27.8167 77.0271 27.7083 76.4932 27.4917L76.338 27.4292L76.6483 26.5958L76.8077 26.6583C77.3081 26.8444 77.7512 26.9375 78.137 26.9375C78.4949 26.9375 78.7576 26.9028 78.9254 26.8333C79.0931 26.7611 79.177 26.6514 79.177 26.5042Z" fill="#0A5433"/>
<path d="M84.1253 26.5042C84.1197 26.4347 84.0652 26.3736 83.9617 26.3208C83.8611 26.2681 83.7311 26.2208 83.5717 26.1792C83.4124 26.1375 83.2377 26.0944 83.0476 26.05C82.8575 26.0056 82.6674 25.9514 82.4773 25.8875C82.2899 25.8208 82.118 25.7444 81.9615 25.6583C81.8049 25.5694 81.6777 25.4542 81.5798 25.3125C81.482 25.1681 81.4331 25.0042 81.4331 24.8208C81.4331 24.7125 81.4526 24.6042 81.4918 24.4958C81.5337 24.3847 81.6078 24.2708 81.714 24.1542C81.8203 24.0347 81.9545 23.9306 82.1166 23.8417C82.2788 23.7528 82.4954 23.6806 82.7666 23.625C83.0378 23.5667 83.3439 23.5375 83.685 23.5375C83.8863 23.5375 84.068 23.5486 84.2301 23.5708C84.3923 23.5903 84.5069 23.6083 84.574 23.625C84.6411 23.6417 84.7431 23.6708 84.8801 23.7125L85.052 23.7625L84.7669 24.6042L84.6075 24.5625C84.2441 24.4625 83.8905 24.4125 83.5466 24.4125C83.3733 24.4125 83.2209 24.425 83.0895 24.45C82.9581 24.4722 82.8575 24.5 82.7876 24.5333C82.7205 24.5639 82.666 24.6014 82.624 24.6458C82.5821 24.6875 82.5555 24.7236 82.5443 24.7542C82.5332 24.7819 82.5276 24.8083 82.5276 24.8333C82.5276 24.8972 82.5765 24.9556 82.6743 25.0083C82.775 25.0611 82.905 25.1097 83.0643 25.1542C83.2237 25.1958 83.3984 25.2417 83.5885 25.2917C83.7814 25.3389 83.9743 25.3972 84.1672 25.4667C84.3601 25.5361 84.5362 25.6153 84.6956 25.7042C84.8549 25.7931 84.9836 25.9069 85.0814 26.0458C85.182 26.1847 85.2324 26.3403 85.2324 26.5125C85.2324 26.6319 85.2142 26.7472 85.1778 26.8583C85.1443 26.9694 85.0772 27.0847 84.9766 27.2042C84.8787 27.3236 84.7515 27.4278 84.595 27.5167C84.4384 27.6028 84.2273 27.675 83.9617 27.7333C83.6962 27.7889 83.3914 27.8167 83.0476 27.8167C82.5108 27.8167 81.9754 27.7083 81.4415 27.4917L81.2863 27.4292L81.5966 26.5958L81.756 26.6583C82.2564 26.8444 82.6995 26.9375 83.0853 26.9375C83.4431 26.9375 83.7059 26.9028 83.8737 26.8333C84.0414 26.7611 84.1253 26.6514 84.1253 26.5042Z" fill="#0A5433"/>
<path d="M88.6333 23.5375C88.8737 23.5375 89.089 23.5639 89.2791 23.6167C89.472 23.6667 89.6299 23.7319 89.7529 23.8125C89.8787 23.8903 89.9864 23.9931 90.0758 24.1208C90.1681 24.2458 90.238 24.3667 90.2855 24.4833C90.333 24.5972 90.3694 24.7347 90.3945 24.8958C90.4225 25.0569 90.4393 25.1931 90.4449 25.3042C90.4504 25.4153 90.4532 25.5472 90.4532 25.7V26.1667H87.3375C87.3962 26.3722 87.5625 26.5514 87.8365 26.7042C88.1105 26.8542 88.4711 26.9292 88.9184 26.9292C89.2343 26.9292 89.5558 26.8819 89.8829 26.7875L90.0549 26.7375L90.2603 27.5292L90.1094 27.5792C89.6425 27.7375 89.1449 27.8167 88.6165 27.8167C88.2475 27.8167 87.9204 27.7764 87.6352 27.6958C87.3501 27.6153 87.1208 27.5111 86.9475 27.3833C86.777 27.2556 86.6358 27.1014 86.524 26.9208C86.4149 26.7403 86.3394 26.5597 86.2975 26.3792C86.2556 26.1986 86.2346 26.0056 86.2346 25.8C86.2346 25.4944 86.2779 25.2153 86.3646 24.9625C86.4541 24.7069 86.5743 24.4931 86.7252 24.3208C86.879 24.1458 87.0579 23.9986 87.262 23.8792C87.4689 23.7597 87.6869 23.6736 87.9162 23.6208C88.1454 23.5653 88.3845 23.5375 88.6333 23.5375ZM88.4613 24.4708C88.1398 24.4708 87.8826 24.5514 87.6897 24.7125C87.4968 24.8708 87.3822 25.0694 87.3459 25.3083H89.4384C89.4161 25.0083 89.321 24.7944 89.1533 24.6667C88.9855 24.5361 88.7549 24.4708 88.4613 24.4708Z" fill="#0A5433"/>
<path d="M94.5125 27.6583C94.1016 27.7639 93.7577 27.8167 93.4809 27.8167C93.2153 27.8167 92.9861 27.7903 92.7932 27.7375C92.6031 27.6847 92.4535 27.6181 92.3445 27.5375C92.2355 27.4542 92.1488 27.3486 92.0845 27.2208C92.023 27.0903 91.9825 26.9639 91.9629 26.8417C91.9433 26.7194 91.9335 26.5764 91.9335 26.4125V24.4958H91.2919V23.6167H91.9335V22.4375H92.9651V23.6167H94.4874V24.4958H92.9651V26.3417C92.9651 26.4111 92.9763 26.4778 92.9987 26.5417C93.0238 26.6056 93.063 26.6694 93.1161 26.7333C93.1692 26.7972 93.2489 26.8486 93.3551 26.8875C93.4614 26.9236 93.5872 26.9417 93.7325 26.9417C93.808 26.9417 94.0121 26.9139 94.3448 26.8583L94.5083 26.8292L94.6719 27.6167L94.5125 27.6583Z" fill="#0A5433"/>
<path d="M98.3244 26.5042C98.3188 26.4347 98.2643 26.3736 98.1608 26.3208C98.0602 26.2681 97.9302 26.2208 97.7709 26.1792C97.6115 26.1375 97.4368 26.0944 97.2467 26.05C97.0566 26.0056 96.8665 25.9514 96.6764 25.8875C96.489 25.8208 96.3171 25.7444 96.1606 25.6583C96.004 25.5694 95.8768 25.4542 95.7789 25.3125C95.6811 25.1681 95.6322 25.0042 95.6322 24.8208C95.6322 24.7125 95.6517 24.6042 95.6909 24.4958C95.7328 24.3847 95.8069 24.2708 95.9131 24.1542C96.0194 24.0347 96.1536 23.9306 96.3157 23.8417C96.4779 23.7528 96.6945 23.6806 96.9657 23.625C97.2369 23.5667 97.543 23.5375 97.8841 23.5375C98.0854 23.5375 98.2671 23.5486 98.4292 23.5708C98.5914 23.5903 98.706 23.6083 98.7731 23.625C98.8402 23.6417 98.9422 23.6708 99.0792 23.7125L99.2511 23.7625L98.966 24.6042L98.8066 24.5625C98.4432 24.4625 98.0896 24.4125 97.7457 24.4125C97.5724 24.4125 97.42 24.425 97.2886 24.45C97.1572 24.4722 97.0566 24.5 96.9867 24.5333C96.9196 24.5639 96.8651 24.6014 96.8231 24.6458C96.7812 24.6875 96.7546 24.7236 96.7435 24.7542C96.7323 24.7819 96.7267 24.8083 96.7267 24.8333C96.7267 24.8972 96.7756 24.9556 96.8734 25.0083C96.9741 25.0611 97.1041 25.1097 97.2634 25.1542C97.4228 25.1958 97.5975 25.2417 97.7876 25.2917C97.9805 25.3389 98.1734 25.3972 98.3663 25.4667C98.5592 25.5361 98.7354 25.6153 98.8947 25.7042C99.0541 25.7931 99.1827 25.9069 99.2805 26.0458C99.3811 26.1847 99.4315 26.3403 99.4315 26.5125C99.4315 26.6319 99.4133 26.7472 99.377 26.8583C99.3434 26.9694 99.2763 27.0847 99.1757 27.2042C99.0778 27.3236 98.9506 27.4278 98.7941 27.5167C98.6375 27.6028 98.4264 27.675 98.1608 27.7333C97.8953 27.7889 97.5905 27.8167 97.2467 27.8167C96.7099 27.8167 96.1745 27.7083 95.6406 27.4917L95.4854 27.4292L95.7957 26.5958L95.9551 26.6583C96.4555 26.8444 96.8986 26.9375 97.2844 26.9375C97.6423 26.9375 97.905 26.9028 98.0728 26.8333C98.2405 26.7611 98.3244 26.6514 98.3244 26.5042Z" fill="#0A5433"/>
</svg>
